<svg width="13" height="12" viewBox="0 0 13 12" fill="none" xmlns="http://www.w3.org/2000/svg">
<path d="M11.3473 9.03536C11.3473 9.21036 11.3084 9.39022 11.2258 9.56522C11.1431 9.74022 11.0362 9.9055 10.8952 10.0611C10.657 10.3236 10.3945 10.5131 10.098 10.6347C9.80632 10.7562 9.49034 10.8194 9.15007 10.8194C8.65423 10.8194 8.12437 10.7027 7.56534 10.4645C7.00632 10.2263 6.44729 9.9055 5.89312 9.50203C5.33409 9.0937 4.80423 8.64161 4.29868 8.14092C3.79798 7.63536 3.3459 7.1055 2.94243 6.55133C2.54382 5.99717 2.22298 5.443 1.98965 4.8937C1.75632 4.33953 1.63965 3.80967 1.63965 3.30411C1.63965 2.97356 1.69798 2.65758 1.81465 2.36592C1.93132 2.06939 2.11604 1.79717 2.37368 1.55411C2.68479 1.24786 3.02507 1.09717 3.38479 1.09717C3.5209 1.09717 3.65701 1.12633 3.77854 1.18467C3.90493 1.243 4.01673 1.3305 4.10423 1.45689L5.23201 3.04647C5.31951 3.168 5.3827 3.27981 5.42645 3.38675C5.4702 3.48883 5.49451 3.59092 5.49451 3.68328C5.49451 3.79995 5.46048 3.91661 5.39243 4.02842C5.32923 4.14022 5.23687 4.25689 5.1202 4.37356L4.75076 4.75758C4.69729 4.81106 4.67298 4.87425 4.67298 4.95203C4.67298 4.99092 4.67784 5.02495 4.68757 5.06383C4.70215 5.10272 4.71673 5.13189 4.72645 5.16106C4.81395 5.32147 4.96465 5.5305 5.17854 5.78328C5.39729 6.03606 5.63062 6.2937 5.8834 6.55133C6.1459 6.80897 6.39868 7.04717 6.65632 7.26592C6.90909 7.47981 7.11812 7.62564 7.2834 7.71314C7.3077 7.72286 7.33687 7.73745 7.3709 7.75203C7.40979 7.76661 7.44868 7.77147 7.49243 7.77147C7.57507 7.77147 7.63826 7.74231 7.69173 7.68883L8.06118 7.32425C8.1827 7.20272 8.29937 7.11036 8.41118 7.05203C8.52298 6.98397 8.63479 6.94995 8.75632 6.94995C8.84868 6.94995 8.9459 6.96939 9.05284 7.01314C9.15979 7.05689 9.27159 7.12008 9.39312 7.20272L11.0021 8.34508C11.1285 8.43258 11.216 8.53467 11.2695 8.6562C11.3181 8.77772 11.3473 8.89925 11.3473 9.03536Z" stroke="#16156D" stroke-width="1.5" stroke-miterlimit="10"/>
</svg>
