<svg width="13" height="13" viewBox="0 0 13 13" fill="none" xmlns="http://www.w3.org/2000/svg">
<path d="M4.02062 10.6803C4.74978 11.1178 5.62478 11.3609 6.49978 11.3609C9.17339 11.3609 11.3609 9.17339 11.3609 6.49978C11.3609 3.82617 9.17339 1.63867 6.49978 1.63867C3.82617 1.63867 1.63867 3.82617 1.63867 6.49978C1.63867 7.37478 1.88173 8.20117 2.27062 8.93034L2.07911 9.66688C1.88439 10.4158 2.5776 11.0926 3.32166 10.88L4.02062 10.6803Z" stroke="#16156D" stroke-width="1.5" stroke-miterlimit="10" stroke-linecap="round" stroke-linejoin="round"/>
<path d="M8.68652 7.88444C8.68652 7.96319 8.669 8.04413 8.63175 8.12288C8.59451 8.20163 8.54631 8.27601 8.48278 8.34601C8.37543 8.46413 8.25713 8.54944 8.12349 8.60413C7.99204 8.65882 7.84964 8.68726 7.69629 8.68726C7.47283 8.68726 7.23403 8.63476 6.98209 8.52757C6.73015 8.42038 6.47821 8.27601 6.22846 8.09444C5.97652 7.91069 5.73773 7.70726 5.50988 7.48194C5.28423 7.25444 5.08049 7.01601 4.89865 6.76663C4.71901 6.51726 4.57442 6.26788 4.46926 6.02069C4.3641 5.77132 4.31152 5.53288 4.31152 5.30538C4.31152 5.15663 4.33781 5.01444 4.39039 4.88319C4.44297 4.74976 4.52622 4.62726 4.64233 4.51788C4.78254 4.38007 4.9359 4.31226 5.09802 4.31226C5.15936 4.31226 5.2207 4.32538 5.27547 4.35163C5.33243 4.37788 5.38282 4.41726 5.42225 4.47413L5.93051 5.18944C5.96995 5.24413 5.99843 5.29444 6.01815 5.34257C6.03786 5.38851 6.04882 5.43444 6.04882 5.47601C6.04882 5.52851 6.03348 5.58101 6.00281 5.63132C5.97433 5.68163 5.93271 5.73413 5.88013 5.78663L5.71363 5.95944C5.68953 5.98351 5.67857 6.01194 5.67857 6.04694C5.67857 6.06444 5.68076 6.07976 5.68515 6.09726C5.69172 6.11476 5.69829 6.12788 5.70267 6.14101C5.74211 6.21319 5.81002 6.30726 5.90642 6.42101C6.005 6.53476 6.11016 6.65069 6.22408 6.76663C6.34238 6.88257 6.4563 6.98976 6.57241 7.08819C6.68634 7.18444 6.78054 7.25007 6.85503 7.28944C6.86598 7.29382 6.87912 7.30038 6.89446 7.30694C6.91199 7.31351 6.92951 7.31569 6.94923 7.31569C6.98647 7.31569 7.01495 7.30257 7.03905 7.27851L7.20555 7.11444C7.26032 7.05976 7.3129 7.01819 7.36329 6.99194C7.41368 6.96132 7.46406 6.94601 7.51883 6.94601C7.56046 6.94601 7.60428 6.95476 7.65247 6.97444C7.70067 6.99413 7.75106 7.02257 7.80583 7.05976L8.53098 7.57382C8.58794 7.61319 8.62737 7.65913 8.65147 7.71382C8.67338 7.76851 8.68652 7.82319 8.68652 7.88444Z" stroke="#16156D" stroke-width="1.5" stroke-miterlimit="10"/>
</svg>
